# xmcd
# 
# Track frame offsets:
#     150
#     34196
#     59866
#     81499
#     129786
#     154044
#     192886
# 
# Disc length: 3324
# 
# Revision: 2
# Processed by: cddbd v1.5.2PL0 Copyright (c) Steve Scherf et al.
# Submitted via: BonkEnc v1.0.8
# 
DISCID=5b0cfa07
DTITLE=Sadao Watanabe - Basie's At Night [CD1]
DYEAR=2007
DGENRE=Jazz
TTITLE0=One For You
TTITLE1=Plum Island
TTITLE2=I'm Old Fashioned
TTITLE3=Alalake/Lopin'
TTITLE4=Tembea
TTITLE5=Deep In A Dream
TTITLE6=Maji
EXTD=YEAR: 2007
EXTT0=
EXTT1=
EXTT2=
EXTT3=
EXTT4=
EXTT5=
EXTT6=
PLAYORDER=
